#!OML:ASF E:/inclinewalkrobotboard/Project1/Captureday1/Session1/subject1.ASF
:FULLY-SPECIFIED
:DEGREES
88
root 0 0 0 83.37051893751169 -32.453319887987185 -51.76502113391748
lowerback -10.588593134414488 8.982818665919995 9.209570318348439
upperback -17.498885840457156 11.61948576283109 1.3835644403766398
thorax -12.130667635536154 4.6207278899772595 -3.547607037434722
lowerneck -12.304730205550419 9.590297286642883 6.481757796864083
upperneck 14.126425237402417 11.161036224258348 4.8235121102763
head 6.702228520045695 6.049675149937228 1.3161823518205504
rclavicle 1.928643878709114E-16 -1.0246007809307378E-14
rhumerus 27.676246105232032 -51.11538107960255 -19.047679020654975
rradius 9.63029401774817
rwrist 48.890701988362736
rhand 6.349752064227013 -2.7171329885390154
rfingers 7.1250200000000055
rthumb 31.658510369745542 -29.886107930722396
lclavicle -6.958933158710946E-15 -1.1755277339487614E-14
lhumerus -12.455888660144865 18.063068350507578 -1.7704488688591553
lradius 17.61109987587603
lwrist -40.772698403994234
lhand -6.385008106608308 33.00900668745204
lfingers 7.125020000000026
lthumb 19.472392082101557 62.08284459448304
rfemur 162.73402259844045 -165.0239552646961 -151.6433372609685
rtibia 38.88384305209267
rfoot 31.17277021968234 -52.67290593700103
rtoes 31.88604575029871
lfemur -53.962213416594736 14.916452639228826 -0.7420717751792196
ltibia 24.554948966885537
lfoot -66.3584516750542 20.56384333948896
ltoes 47.37759424833645
89
root 0 0 0 81.92368289344316 -34.05818887273543 -52.572556516747056
lowerback -10.217395865377316 9.202917541230828 10.66615149093721
upperback -16.50924497977819 12.015110794545302 1.7779459647679139
thorax -11.11379599439183 4.6781585175667155 -3.834999303667243
lowerneck -12.565929620304761 9.105255980767994 6.170002829496688
upperneck 16.982181275447267 10.449519303624601 4.865683607736896
head 7.790787819687877 5.702502642189795 1.360833155536842
rclavicle 1.4308965974852515E-15 -6.99986289460263E-15
rhumerus 22.789966248644987 -50.54948917107706 -13.532848082880314
rradius 10.077560317411148
rwrist 47.67709791656941
rhand 7.452073209866369 -3.045657198836121
rfingers 7.125020000000005
rthumb 32.70875516335868 -29.9730004007858
lclavicle -5.313890421638782E-15 -1.0021471047589175E-14
lhumerus -14.61720538099646 19.65927990008661 0.701335030686721
lradius 17.21961853946848
lwrist -41.95307986438256
lhand -7.025230744695924 32.52575965848744
lfingers 7.125020000000024
lthumb 18.87282656520594 61.77194617229463
rfemur 164.621021810502 -166.72923527060976 -152.75337589046063
rtibia 39.456196441684185
rfoot 30.89197163003299 -50.9443922316607
rtoes 30.922526841472276
lfemur -55.52112337974752 16.500033502012677 1.2216501672658353
ltibia 23.81994234381195
lfoot -66.86808955865547 20.30327545887354
ltoes 48.75438277784915
90
root 0 0 0 79.35315257237711 -35.204177797514134 -51.981361337758926
lowerback -9.608697507359238 9.236277166728206 11.0174069745856
upperback -15.067753260570452 12.201117609504271 1.8754927511741561
thorax -9.755191405711827 4.744102523039741 -3.904747247359098
lowerneck -13.30166434423545 8.228552526322142 5.771310354843256
upperneck 20.58446576378644 9.194065922129766 4.4390072528710816
head 9.218849306168416 5.094015158725747 1.2771895947746652
rclavicle 4.166822156659826E-15 -4.688109964825207E-15
rhumerus 17.27614968622691 -49.24595607568443 -9.371446586359788
rradius 10.550539712294057
rwrist 47.56704025619042
rhand 8.802431392122461 -3.113198034559753
rfingers 7.125020000000009
rthumb 33.99083915674616 -29.704827205618354
lclavicle -2.396309876622676E-15 -8.779867851035801E-15
lhumerus -17.181158683109757 21.000758087356502 3.164046374266121
lradius 16.81806941607626
lwrist -43.434592940784
lhand -7.8814782360509215 31.87989000723297
lfingers 7.125020000000025
lthumb 18.064151717569462 61.31760861845457
rfemur 163.41187840858586 -166.99996438351562 -152.07960940619233
rtibia 38.51984285551176
rfoot 27.837173435551655 -50.77413974910972
rtoes 30.526944720973525
lfemur -56.15643719996697 16.59702916093238 -0.24902797038108915
ltibia 24.319962673917477
lfoot -67.13905461786511 21.271893221911583
ltoes 48.29875618714569
91
root 0 0 0 75.94406597809814 -36.43750894420455 -47.9359940658589
lowerback -8.315237185572647 8.96818789945272 9.71746823490311
upperback -13.69039797025735 11.989788513672826 1.0177346659242372
thorax -8.921805298454599 4.686121750644137 -4.207358883507662
lowerneck -14.544814460416223 6.167429863461785 4.817432973886273
upperneck 26.844416065075173 6.090501921185206 3.21985238475949
head 11.533730342958764 3.691534483426377 1.0921118554119487
rclavicle 9.72916304913007E-15 -1.852211455060216E-15
rhumerus 9.65694383385853 -46.68143888709794 -4.847770919735147
rradius 10.93735881459336
rwrist 49.2478379844531
rhand 11.616022320962635 -3.411905732717372
rfingers 7.125020000000016
rthumb 36.65531456485377 -29.321055195599683
lclavicle 2.3721769682045573E-15 -7.86005128669687E-15
lhumerus -20.989876417544686 23.727643863138795 6.1590706290078785
lradius 16.27082623375782
lwrist -46.93846256495259
lhand -9.771776817186621 30.3500950749786
lfingers 7.125020000000025
lthumb 16.27458119916252 60.17619877010203
rfemur 158.2812023262432 -163.8648452462404 -148.51829704439857
rtibia 35.61738307264325
rfoot 21.579824272549764 -52.663104489142675
rtoes 31.17979373842151
lfemur -57.92107270885762 14.51687747859608 -8.82339446406191
ltibia 27.05626703357771
lfoot -66.65680552756164 25.838001262832254
ltoes 44.29086606189109
92
root 0 0 0 73.97166310450558 -37.34747433312005 -45.2073646035272
lowerback -7.496709630623011 8.741385754502764 8.422570348632215
upperback -13.084927504100323 11.7181205331648 0.4422697196202581
thorax -8.76193862592659 4.637027742367214 -4.148719476911378
lowerneck -14.969191987114769 5.047535769843368 4.365499652982105
upperneck 30.089772786768098 4.364325393596337 2.722290043871113
head 12.687278949687641 2.9244513499483142 1.0082826634985547
rclavicle 1.6185408443473444E-14 1.5667112119490021E-15
rhumerus 4.211616100346396 -44.4951551580423 -1.6374908703486781
rradius 11.201089372414337
rwrist 50.81446944033188
rhand 14.18551869985777 -3.7933138118695755
rfingers 7.125020000000021
rthumb 39.08494997261907 -29.09005344079221
lclavicle 7.379314039473815E-15 -6.317677791917601E-15
lhumerus -24.093235612666238 26.66164309613718 7.025181438307548
lradius 16.097309562492367
lwrist -50.90794594124445
lhand -11.48176158927135 28.631440907305297
lfingers 7.125020000000022
lthumb 14.655090671603467 58.78971506225762
rfemur 154.32345742101006 -160.30606182269779 -145.41127118674027
rtibia 33.96284834703931
rfoot 17.547506861667273 -54.3784599204219
rtoes 31.704941965749413
lfemur -58.68369883549511 11.892526873740023 -19.080320021345933
ltibia 30.07427660868426
lfoot -63.33740990645008 29.72867305339605
ltoes 38.680401708902124
93
root 0 0 0 72.43331365923771 -38.307524789673224 -43.60211531577178
lowerback -7.486880440683679 8.519262678550241 7.423526386592087
upperback -12.712867862194662 11.40944327449278 0.27809791677045936
thorax -8.441216052637994 4.587033668021308 -3.762683078171496
lowerneck -14.820691344734229 4.631388929090765 4.344332022077786
upperneck 31.46493483385305 3.695929427772211 2.7179526571238752
head 13.163838055492056 2.623456979665737 0.9640223597438984
rclavicle 2.1503436956158304E-14 4.469342693477172E-15
rhumerus -1.40392723849806 -42.29969601617641 1.9712996901358082
rradius 11.553754319000468
rwrist 51.92197197218083
rhand 17.229196580005144 -4.452729715238048
rfingers 7.1250200000000214
rthumb 41.96485919727453 -29.051702940170927
lclavicle 1.1303467592871066E-14 -4.718882711960781E-15
lhumerus -27.11905952550451 29.936293626486368 7.427403384476051
lradius 15.745879398260872
lwrist -55.28216131232967
lhand -13.026678936710185 26.630385126731447
lfingers 7.12502000000002
lthumb 13.193398307787422 57.08488615874178
rfemur 150.35385678093968 -157.31487961149531 -142.35876472552752
rtibia 33.24155003234549
rfoot 13.224166280676855 -55.77339944928168
rtoes 31.37679583582507
lfemur -60.02809833705083 11.408425770980537 -27.954389567299295
ltibia 32.82571196320103
lfoot -58.55959075773717 32.62586449202043
ltoes 33.50028976900129
94
root 0 0 0 70.3207872614306 -39.688185640973835 -41.44389465463872
lowerback -8.262040775696622 8.170812322731477 6.594025888297811
upperback -12.451148952296435 10.940888646571775 0.22369135730588985
thorax -7.816731836177554 4.447716577878114 -3.3461433372570673
lowerneck -14.394642802851259 4.2986601993336775 4.397113233407073
upperneck 32.66716493744421 3.1447681355017925 2.8384528100066615
head 13.54672148308663 2.3765007762698747 0.9384372264535743
rclavicle 2.2840721323133015E-14 5.0888310082427375E-15
rhumerus -4.257699777989158 -40.293409868529075 4.480036298506143
rradius 12.356778104508248
rwrist 50.70960227769291
rhand 19.964494071804666 -5.339064952647318
rfingers 7.125020000000016
rthumb 44.55560275621563 -29.33291500745866
lclavicle 1.2089054958243007E-14 -3.983883574330327E-15
lhumerus -29.74000548285957 31.914378989782826 7.932072175363935
lradius 15.090093584126414
lwrist -58.41903395250417
lhand -13.885255513187522 25.021634240905165
lfingers 7.12502000000002
lthumb 12.380470436136402 55.62528171239021
rfemur 146.505228786958 -155.29654775605576 -139.3811440612361
rtibia 33.21968855911193
rfoot 8.192329563818276 -56.346640954914164
rtoes 29.817701678431263
lfemur -62.61345122022038 13.512236513965755 -33.08348538647485
ltibia 34.95403476974789
lfoot -54.55556038846069 34.508594316178446
ltoes 30.547092657076085
95
root 0 0 0 64.2037317658438 -43.43659824718978 -35.32821336861084
lowerback -10.571979491522594 7.206813032672493 4.919293470159746
upperback -12.057307850378349 9.649255644892206 0.07268142294473279
thorax -6.330523263055593 4.021084773323124 -2.530020922405951
lowerneck -13.20457770021534 3.5652326282154867 4.5016852559906795
upperneck 35.11567481374114 1.936351973490977 3.293292617776697
head 14.266367318309912 1.840804899952152 0.9298751287027278
rclavicle 1.9655398358293372E-14 4.414469326280522E-15
rhumerus 0.07751057029244812 -34.95436890053615 5.903314595733548
rradius 15.836281314676917
rwrist 41.45112745249432
rhand 24.412754617433517 -7.465277056857767
rfingers 7.12502
rthumb 48.76346486394863 -30.458337238664164
lclavicle 1.0432686612382283E-14 -3.5397937037460456E-15
lhumerus -33.709970258849594 32.73164765794827 9.152714095510547
lradius 13.763236315218375
lwrist -60.98122527259718
lhand -13.953094656999234 23.40854041894081
lfingers 7.12502000000002
lthumb 12.316171275781915 53.99610596478306
rfemur 141.9661848262253 -154.07285682965468 -135.85272627912283
rtibia 33.60295656714527
rfoot 0.3364512997010216 -56.0942577263241
rtoes 26.3987106338597
lfemur -65.82956336802485 16.470307027784074 -37.041160906580124
ltibia 37.79085255408377
lfoot -50.89868365649754 35.915651504417816
ltoes 28.06158039123084
